<svg width="65" height="65" viewBox="0 0 65 65" fill="none" xmlns="http://www.w3.org/2000/svg">
<path d="M17.5602 65C16.3286 65 14.987 64.8144 13.5354 64.4433C12.0398 64.1185 10.7642 63.5386 9.70853 62.7034C8.65284 61.8683 8.125 60.7316 8.125 59.2934V58.8062C8.25696 57.9711 8.56487 57.1592 9.04872 56.3705C9.53258 55.5817 10.0604 54.8626 10.6323 54.2131C12.5237 52.0789 14.811 50.3391 17.4942 48.9936C20.2214 47.6945 23.0805 46.6738 26.0716 45.9315C29.1067 45.1892 32.0319 44.6556 34.847 44.3309C36.6505 44.0989 38.4539 43.9597 40.2574 43.9133C42.0609 43.8205 43.8423 43.7741 45.6018 43.7741H47.6472C50.8582 39.2273 53.5634 34.3326 55.7628 29.0899C58.0061 23.8009 59.8315 18.5582 61.2391 13.3619C61.723 11.5989 62.0969 9.85904 62.3608 8.14241C62.6687 6.42578 62.8227 4.87153 62.8227 3.47967V2.92293C62.8227 2.64455 62.7567 2.43577 62.6247 2.29659C62.5367 2.111 62.2508 2.01821 61.767 2.01821C60.7993 2.01821 59.6776 2.27339 58.402 2.78374C57.1703 3.24769 55.9607 3.82763 54.773 4.52357C53.5854 5.1731 52.6177 5.75305 51.8699 6.26339C50.5503 7.14491 49.1867 8.32799 47.7791 9.81265C46.3716 11.2509 45.1839 12.8051 44.2162 14.4754C43.2485 16.1456 42.7646 17.7695 42.7646 19.3469C42.7646 20.0892 42.9406 20.878 43.2925 21.7131C43.6444 22.5482 44.3262 22.9658 45.3379 22.9658C45.9977 22.9658 46.6355 22.8498 47.2513 22.6178C47.9111 22.3394 48.4609 22.2002 48.9008 22.2002C49.2527 22.2002 49.5166 22.3162 49.6926 22.5482C49.8685 22.7802 49.9565 23.0353 49.9565 23.3137C49.9565 23.7313 49.6486 24.056 49.0328 24.288C48.417 24.52 47.7352 24.6824 46.9874 24.7752C46.2836 24.868 45.7557 24.9144 45.4039 24.9144C43.6444 24.9144 42.4127 24.404 41.709 23.3833C41.0052 22.3162 40.6533 21.0635 40.6533 19.6253C40.6533 17.7695 41.1371 15.8673 42.1048 13.9186C43.0726 11.9236 44.3262 10.091 45.8657 8.42078C47.4492 6.75055 49.0768 5.45148 50.7483 4.52357C51.628 4.01322 52.7716 3.41008 54.1792 2.71414C55.5868 1.97182 57.0164 1.34548 58.4679 0.835128C59.9635 0.278382 61.2391 9.53674e-06 62.2948 9.53674e-06C63.4385 9.53674e-06 64.1642 0.30158 64.4722 0.904721C64.824 1.50786 65 2.25019 65 3.1317C65 4.43077 64.868 5.86903 64.6041 7.44648C64.3842 8.97753 64.0763 10.555 63.6804 12.1788C62.4048 17.5607 60.6453 23.0353 58.402 28.6028C56.2026 34.1239 53.5414 39.2274 50.4184 43.9133C51.562 44.0061 52.9256 44.2381 54.5091 44.6092C56.0927 44.934 57.6102 45.3747 59.0618 45.9315C60.5573 46.4882 61.723 47.1378 62.5587 47.8801C62.8226 48.1585 62.9546 48.4136 62.9546 48.6456C62.9546 48.8776 62.8446 49.0864 62.6247 49.272C62.4488 49.5039 62.2288 49.6199 61.9649 49.6199C61.8329 49.6199 61.701 49.5735 61.569 49.4807C61.481 49.4343 61.3711 49.388 61.2391 49.3416C60.6233 48.924 59.9855 48.5528 59.3257 48.2281C58.7099 47.9497 58.0281 47.6945 57.2803 47.4625C56.0047 46.9986 54.6411 46.6506 53.1895 46.4186C51.738 46.1867 50.3084 46.0243 48.9008 45.9315C48.4609 46.5346 47.9991 47.1146 47.5152 47.6713C47.0754 48.2281 46.6135 48.7848 46.1296 49.3416C43.4464 52.4037 40.3894 55.141 36.9584 57.5535C33.5274 59.9661 29.7885 61.8915 25.7417 63.3298C24.6421 63.7009 23.4984 64.0257 22.3108 64.3041C21.1231 64.6289 19.9355 64.8376 18.7478 64.9304C18.5719 64.9304 18.3739 64.9304 18.154 64.9304C17.9781 64.9768 17.7801 65 17.5602 65ZM17.1643 62.9818C17.3842 62.9818 17.6262 62.9818 17.8901 62.9818C18.154 62.9818 18.3959 62.9586 18.6159 62.9122C19.7595 62.8194 20.8812 62.6106 21.9809 62.2859C23.0805 62.0075 24.1582 61.6827 25.2139 61.3116C28.9528 59.9661 32.4497 58.1335 35.7048 55.8137C39.0038 53.5403 41.9069 50.9886 44.4142 48.1585C44.766 47.7873 45.0959 47.3929 45.4039 46.9754C45.7118 46.5578 46.0417 46.1867 46.3936 45.8619C45.9537 45.8155 45.5138 45.7923 45.074 45.7923C44.6341 45.7923 44.1722 45.7923 43.6884 45.7923C42.2808 45.7923 40.8512 45.8387 39.3997 45.9315C37.9921 46.0243 36.5845 46.1635 35.1769 46.3491C32.6257 46.6274 29.9425 47.0914 27.1273 47.7409C24.3561 48.4368 21.6949 49.3648 19.1437 50.5246C16.6365 51.6845 14.4811 53.1924 12.6776 55.0482C12.1498 55.6049 11.6439 56.2081 11.1601 56.8576C10.6762 57.5536 10.3683 58.2959 10.2364 59.0846V59.5022C10.2364 60.4765 10.6542 61.1956 11.49 61.6595C12.3257 62.1699 13.2935 62.5179 14.3931 62.7034C15.4488 62.889 16.3725 62.9818 17.1643 62.9818Z" fill="black"/>
<path d="M14.1619 -3.57628e-07C12.6073 -3.57628e-07 10.9958 0.170626 9.3275 0.511876C7.69708 0.81521 6.16146 1.32709 4.72062 2.0475C3.31771 2.73 2.18021 3.62104 1.30812 4.72063C0.436042 5.85813 0 7.24208 0 8.8725C0 10.0479 0.265417 11.2044 0.79625 12.3419C2.23708 15.5648 4.36042 18.1621 7.16625 20.1338C10.01 22.1054 13.2708 23.5842 16.9487 24.57C15.5837 25.5938 14.9012 26.8071 14.9012 28.21C14.9012 28.9304 15.034 29.6319 15.2994 30.3144C15.6027 30.9969 15.944 31.6415 16.3231 32.2481C17.2331 33.6131 18.4465 34.8265 19.9631 35.8881C21.4798 36.9498 23.1671 37.8408 25.025 38.5613C26.8829 39.2817 28.7787 39.8315 30.7125 40.2106C32.6842 40.5898 34.5421 40.7794 36.2862 40.7794C37.31 40.7794 38.3527 40.6656 39.4144 40.4381C40.514 40.2485 41.424 39.8694 42.1444 39.3006C42.8648 38.7319 43.225 37.8788 43.225 36.7413C43.225 35.7175 42.789 34.7127 41.9169 33.7269C41.0827 32.779 40.021 32.305 38.7319 32.305C38.4285 32.305 38.0873 32.3619 37.7081 32.4756C37.3669 32.6273 37.1962 32.8738 37.1962 33.215C37.1962 33.4046 37.2721 33.5942 37.4237 33.7838C37.6133 33.9733 37.8408 34.0681 38.1062 34.0681C38.2958 34.0681 38.4475 34.0302 38.5612 33.9544C38.7129 33.8785 38.8646 33.8406 39.0162 33.8406C39.7746 33.8406 40.3623 34.1819 40.7794 34.8644C41.1965 35.5848 41.405 36.1915 41.405 36.6844C41.405 37.4427 41.1585 37.9925 40.6656 38.3338C40.1727 38.7129 39.566 38.9594 38.8456 39.0731C38.1631 39.1869 37.4806 39.2438 36.7981 39.2438C35.1677 39.2438 33.4425 39.0731 31.6225 38.7319C29.8025 38.3906 28.0015 37.8977 26.2194 37.2531C24.4752 36.6085 22.8827 35.7933 21.4419 34.8075C20.001 33.8217 18.8446 32.6842 17.9725 31.395C17.6692 30.9021 17.4037 30.3902 17.1762 29.8594C16.9487 29.3285 16.835 28.7788 16.835 28.21C16.835 27.4896 17.0435 26.864 17.4606 26.3331C17.9156 25.8023 18.5033 25.3663 19.2237 25.025C20.6646 25.2904 22.0865 25.48 23.4894 25.5938C24.9302 25.7075 26.371 25.7644 27.8119 25.7644C28.1152 25.7644 28.5892 25.7075 29.2337 25.5938C29.8783 25.5179 30.2006 25.2525 30.2006 24.7975C30.2006 24.4183 29.9731 24.0771 29.5181 23.7738C29.0631 23.4704 28.5512 23.224 27.9825 23.0344C27.4137 22.8448 26.9398 22.731 26.5606 22.6931C25.6127 22.5794 24.6648 22.5225 23.7169 22.5225C22.9585 22.5225 22.1812 22.5794 21.385 22.6931C20.6267 22.8069 19.8873 22.9965 19.1669 23.2619C18.9394 23.224 18.7119 23.186 18.4844 23.1481C18.2948 23.1102 18.0862 23.0533 17.8587 22.9775C14.4083 22.1433 11.3181 20.8352 8.58812 19.0531C5.85812 17.271 3.82958 14.8633 2.5025 11.83C2.08542 10.8821 1.87687 9.93417 1.87687 8.98625C1.87687 7.62125 2.25604 6.46479 3.01438 5.51688C3.81062 4.56896 4.81542 3.81063 6.02875 3.24188C7.24208 2.67313 8.56917 2.275 10.01 2.0475C11.4508 1.78209 12.8158 1.64938 14.105 1.64938H14.7875C18.4275 1.64938 21.9537 2.25604 25.3662 3.46938C28.8167 4.68271 31.9069 6.35104 34.6369 8.47438C35.2435 8.96729 35.8502 9.51709 36.4569 10.1238C37.1015 10.7304 37.6133 11.3371 37.9925 11.9438C38.2958 12.3988 38.5233 12.8727 38.675 13.3656C38.8646 13.8965 38.9594 14.4083 38.9594 14.9013C38.9594 15.6975 38.7698 16.2473 38.3906 16.5506C38.0494 16.8919 37.6512 17.1004 37.1962 17.1763C36.7412 17.2521 36.3242 17.3279 35.945 17.4038C35.6037 17.4796 35.4331 17.7071 35.4331 18.0863C35.4331 18.3517 35.5279 18.5602 35.7175 18.7119C35.9071 18.8635 36.1346 18.9394 36.4 18.9394C37.765 18.9394 38.8456 18.5412 39.6419 17.745C40.476 16.9867 40.8931 16.0388 40.8931 14.9013C40.8931 14.2567 40.7794 13.6121 40.5519 12.9675C40.3244 12.3229 40.04 11.7163 39.6987 11.1475C39.2058 10.3892 38.5612 9.63083 37.765 8.8725C36.9687 8.15208 36.1915 7.5075 35.4331 6.93875C32.5515 4.7775 29.3475 3.09021 25.8212 1.87687C22.3329 0.625624 18.674 -3.57628e-07 14.8444 -3.57628e-07H14.1619Z" fill="black"/>
</svg>
